<svg xmlns="http://www.w3.org/2000/svg"  viewBox="0 0 24 24" width="24px" height="24px"><path d="M 20.957031 11.902344 C 20.429688 12.023438 19.917969 12.074219 19.460938 12.074219 C 16.875 12.074219 14.886719 10.316406 14.886719 7.265625 C 14.886719 5.769531 15.480469 4.992188 16.320313 4.992188 C 17.121094 4.992188 17.652344 5.691406 17.652344 7.105469 C 17.652344 7.910156 17.433594 8.792969 17.269531 9.316406 C 17.269531 9.316406 18.066406 10.667969 20.242188 10.253906 C 20.707031 9.253906 20.957031 7.960938 20.957031 6.824219 C 20.957031 3.773438 19.355469 1.996094 16.425781 1.996094 C 13.410156 1.996094 11.644531 4.253906 11.644531 7.226563 C 11.644531 10.171875 13.058594 12.695313 15.394531 13.847656 C 14.414063 15.757813 13.164063 17.441406 11.863281 18.707031 C 9.5 15.929688 7.363281 12.234375 6.484375 5.003906 L 3 5.003906 C 4.609375 17.046875 9.410156 20.871094 10.679688 21.609375 C 11.398438 22.027344 12.015625 22.007813 12.671875 21.648438 C 13.703125 21.078125 16.796875 18.070313 18.511719 14.546875 C 19.234375 14.542969 20.097656 14.464844 20.960938 14.273438 Z"/></svg>